<svg width="100" height="115" viewBox="0 0 100 115" fill="none" xmlns="http://www.w3.org/2000/svg">
<path fill-rule="evenodd" clip-rule="evenodd" d="M14.2857 0C6.39593 0 0 6.39593 0 14.2857V114.286L25 100L50 114.286L75 100L100 114.286V14.2857C100 6.39593 93.6043 0 85.7143 0H14.2857ZM32.1429 21.4286C26.2255 21.4286 21.4286 26.2255 21.4286 32.1429C21.4286 38.0602 26.2255 42.8571 32.1429 42.8571C38.0602 42.8571 42.8571 38.0602 42.8571 32.1429C42.8571 26.2255 38.0602 21.4286 32.1429 21.4286ZM76.4793 23.5206C73.69 20.7312 69.1671 20.7312 66.3779 23.5206L23.5206 66.3779C20.7312 69.1671 20.7312 73.69 23.5206 76.4793C26.3101 79.2686 30.8327 79.2686 33.6222 76.4793L76.4793 33.6222C79.2686 30.8327 79.2686 26.3101 76.4793 23.5206ZM67.8571 57.1429C61.94 57.1429 57.1429 61.94 57.1429 67.8571C57.1429 73.7743 61.94 78.5714 67.8571 78.5714C73.7743 78.5714 78.5714 73.7743 78.5714 67.8571C78.5714 61.94 73.7743 57.1429 67.8571 57.1429Z" fill="#FFA500"/>
</svg>
